<svg id="Capa_1" enable-background="new 0 0 511.206 511.206" height="512" viewBox="0 0 511.206 511.206" width="512" xmlns="http://www.w3.org/2000/svg"><g><g><path d="m354.169 169.573 11.592-41.563c16.887-60.55-28.639-120.51-91.5-120.51h-37.316c-62.861 0-108.387 59.96-91.5 120.51l11.592 41.563 24.232 54.922h153.967z" fill="#a59ca6"/><g><path d="m194.264 253.539h122.678v177.318h-122.678z" fill="#ffe0d1"/></g><g><path d="m221.074 253.539h-26.81v177.318h32.876v-55.12c0-10.207 8.353-18.311 18.56-18.284h.192 19.42c15.041 0 29.408-4.698 41.558-13.591l10.071-7.382v-64.645-18.297h-95.867z" fill="#ffd1c2"/><path d="m344.173 244.723 3.91 7.45c14.66 27.94-2.95 59.76-30.83 65.48 0 0 0 .01-.01.01l-19.24 14.1c-9.48 6.94-20.93 10.69-32.69 10.69h-19.42c-11.76 0-23.21-3.75-32.69-10.69l-19.66-14.42c-27.06-6.49-43.83-37.7-29.42-65.17l3.61-6.89-1.15-.6-3.96-2.28-17.36-10.47c-6.84-4.13-11.02-11.53-11.02-19.51v-20.06c0-12.59 10.21-22.79 22.79-22.79 2.87-7.96 5.03-16.12 6.47-24.42 1.45-8.3 2.18-16.72 2.18-25.17v-7.94c0-9.03 3.46-17.71 9.65-24.27 6.81-7.21 16.17-11.08 25.71-11.08 4.36 0 8.75.81 12.96 2.47l28.17 11.12c8.63 3.41 18.23 3.41 26.86 0l28.17-11.12c13.43-5.3 28.75-1.89 38.67 8.61 3.09 3.28 5.51 7.09 7.15 11.21s2.5 8.55 2.5 13.06v7.94c0 16.91 2.92 33.68 8.65 49.59 6.29 0 11.99 2.55 16.11 6.67 4.13 4.13 6.68 9.83 6.68 16.12v20.06c0 7.98-4.18 15.38-11.02 19.51l-17.36 10.47-2.43 1.28z" fill="#ffe0d1"/><g><path d="m168.04 120.673c7.429-7.865 17.639-12.087 28.046-12.087 4.756 0 9.545.884 14.137 2.694l30.729 12.13c9.414 3.72 19.886 3.72 29.3 0l30.729-12.13c14.65-5.781 31.362-2.062 42.183 9.392.848.9 1.648 1.836 2.402 2.805-.028-1.164-.045-2.329-.045-3.495v-7.94c0-4.51-.86-8.94-2.5-13.06s-4.06-7.93-7.15-11.21c-9.92-10.5-25.24-13.91-38.67-8.61l-28.17 11.12c-8.63 3.41-18.23 3.41-26.86 0l-28.17-11.12c-4.21-1.66-8.6-2.47-12.96-2.47-9.54 0-18.9 3.87-25.71 11.08-6.19 6.56-9.65 15.24-9.65 24.27v7.94c0 1.165-.017 2.329-.045 3.493.755-.968 1.556-1.903 2.404-2.802z" fill="#ffd1c2"/></g></g><g><path d="m355.104 385.097 64.423 30.198c25.102 11.766 41.135 36.988 41.135 64.711v16.878c0 3.768-3.054 6.822-6.822 6.822h-396.474c-3.768 0-6.822-3.054-6.822-6.822v-16.878c0-27.723 16.033-52.945 41.135-64.711l64.423-30.198 30.398-11.148 69.103 24.539 69.163-28.314z" fill="#f8f3f2"/><path d="m355.104 385.097-30.338-14.923-69.163 24.426-50.853-14.17-18.076 11.042v-17.461l-.174-.062-30.398 11.148-64.424 30.198c-25.102 11.766-41.135 36.988-41.135 64.711v16.878c0 3.768 3.054 6.822 6.822 6.822h36.689v-6.77c0-27.723 16.033-52.944 41.134-64.711l16.678-7.818c6.988-3.276 15.233-2.268 21.226 2.595l19.989 16.218c6.089 4.94 13.692 7.637 21.533 7.637h.001c9.287 0 18.175-3.777 24.621-10.464l16.365-16.976 16.366 16.977c6.409 6.649 15.383 10.462 24.621 10.462 7.816 0 15.465-2.713 21.537-7.64l44.704-36.269c4.479-3.635 7.999-8.231 10.368-13.368z" fill="#f2eae7"/><g fill="#f8f3f2"><path d="m255.603 394.6-66.467-39.804c-6.803-4.074-15.504-3.01-21.125 2.583l-8.34 8.298c-7.299 7.263-6.692 19.252 1.305 25.74l44.703 36.268c5.722 4.642 14.045 4.133 19.159-1.171z"/><path d="m255.603 394.6 66.467-39.804c6.803-4.074 15.504-3.01 21.125 2.583l8.34 8.298c7.299 7.263 6.692 19.252-1.305 25.74l-44.703 36.268c-5.722 4.642-14.045 4.133-19.159-1.171z"/></g></g></g><g><path d="m183.746 156.863c1.391 1.13 3.062 1.679 4.725 1.679 2.181 0 4.343-.946 5.825-2.771 3.371-4.148 8.37-6.528 13.716-6.528h20.563c4.143 0 7.5-3.358 7.5-7.5s-3.357-7.5-7.5-7.5h-20.563c-9.882 0-19.124 4.399-25.356 12.068-2.614 3.216-2.125 7.939 1.09 10.552z"/><path d="m283.631 149.244h20.563c5.346 0 10.345 2.379 13.716 6.528 1.482 1.825 3.645 2.771 5.825 2.771 1.661 0 3.335-.55 4.725-1.679 3.215-2.612 3.703-7.336 1.091-10.551-6.232-7.669-15.475-12.068-25.356-12.068h-20.563c-4.143 0-7.5 3.358-7.5 7.5s3.357 7.499 7.499 7.499z"/><path d="m68.319 422.111c-16.062 14.9-25.274 36.002-25.274 57.895v23.7c0 4.142 3.357 7.5 7.5 7.5s7.5-3.358 7.5-7.5v-23.7c0-17.733 7.463-34.827 20.476-46.898 3.037-2.817 3.215-7.562.397-10.599-2.816-3.036-7.562-3.216-10.599-.398z"/><path d="m436.556 416.826c-3.313-2.483-8.017-1.811-10.499 1.503-2.484 3.314-1.812 8.015 1.503 10.5 16.031 12.016 25.602 31.147 25.602 51.177v23.7c0 4.142 3.357 7.5 7.5 7.5s7.5-3.358 7.5-7.5v-23.7c0-24.728-11.816-48.346-31.606-63.18z"/><path d="m406.97 401.126-43.02-20.165c.071-.578.128-1.159.158-1.744.355-7.023-2.299-13.896-7.284-18.855l-8.34-8.298c-6.424-6.394-15.629-8.642-24.043-6.342v-22.285c10.242-3.352 19.391-9.839 26.091-18.967 12.034-16.396 13.641-37.77 4.192-55.78l-.489-.932 15.583-9.405c9.03-5.449 14.641-15.387 14.641-25.934v-20.054c0-13.402-8.749-24.797-20.834-28.779l9.36-33.561c8.684-31.139 2.453-63.764-17.096-89.511-19.548-25.747-49.301-40.514-81.628-40.514h-37.316c-13.325 0-26.25 2.49-38.415 7.402-3.841 1.551-5.697 5.921-4.147 9.762 1.551 3.84 5.92 5.699 9.763 4.147 10.373-4.188 21.408-6.311 32.8-6.311h37.316c27.597 0 52.994 12.605 69.683 34.584 16.688 21.979 22.007 49.829 14.593 76.411l-4.003 14.354c-.995-6.721-1.513-13.519-1.513-20.365v-7.942c0-10.984-4.153-21.432-11.695-29.417-12.095-12.806-30.494-16.901-46.88-10.434l-28.168 11.119c-6.883 2.717-14.465 2.717-21.348 0l-28.17-11.12c-16.387-6.469-34.786-2.373-46.88 10.434-7.542 7.986-11.695 18.433-11.695 29.417v7.942c0 6.847-.519 13.645-1.513 20.365l-4.003-14.354c-9.08-32.558 1.055-66.731 26.449-89.183 3.104-2.744 3.395-7.483.651-10.586s-7.482-3.395-10.587-.651c-29.734 26.289-41.599 66.312-30.963 104.45l9.36 33.561c-12.085 3.981-20.834 15.377-20.834 28.779v20.054c0 10.547 5.61 20.485 14.641 25.934l16.343 9.863-.248.473c-9.448 18.011-7.842 39.385 4.192 55.781 6.482 8.831 15.254 15.193 25.091 18.634v22.618c-8.414-2.3-17.618-.051-24.043 6.343l-8.34 8.298c-4.985 4.96-7.64 11.833-7.284 18.855.03.585.088 1.166.158 1.744l-49.646 23.27c-3.75 1.758-5.365 6.224-3.607 9.974 1.275 2.722 3.977 4.319 6.796 4.319 1.066 0 2.149-.229 3.179-.711l49.502-23.204c.85.941 1.774 1.823 2.771 2.632l44.703 36.269c4.041 3.278 8.873 4.892 13.682 4.892 5.684 0 11.334-2.255 15.602-6.683l17.866-18.533v90.52c0 4.142 3.357 7.5 7.5 7.5s7.5-3.358 7.5-7.5v-90.52l17.866 18.533c4.268 4.428 9.917 6.683 15.602 6.683 4.808 0 9.642-1.614 13.682-4.892l44.703-36.269c.997-.809 1.921-1.69 2.771-2.631l42.877 20.098c1.029.482 2.112.711 3.179.711 2.819 0 5.521-1.597 6.796-4.319 1.755-3.75.14-8.216-3.61-9.974zm-151.367-15.268-53.839-32.241v-20.943l7.011 5.135c10.841 7.941 23.675 12.139 37.113 12.139h19.43c13.438 0 26.272-4.198 37.113-12.139l7.011-5.135v20.943zm-81.837-90.265c-8.747-11.917-9.869-26.846-3.002-39.937l8.438-16.085c1.924-3.668.511-8.202-3.157-10.125-3.667-1.924-8.202-.511-10.126 3.158l-1.209 2.304-15.573-9.399c-4.559-2.751-7.391-7.767-7.391-13.091v-20.054c0-8.432 6.859-15.291 15.291-15.291 3.163 0 5.986-1.984 7.058-4.961 6.033-16.77 9.092-34.309 9.092-52.128v-7.942c0-7.139 2.699-13.928 7.602-19.119 7.858-8.321 19.816-10.984 30.466-6.781l28.168 11.119c10.436 4.119 21.928 4.119 32.363 0l28.168-11.119c10.648-4.202 22.606-1.54 30.466 6.781 4.902 5.19 7.602 11.98 7.602 19.119v7.942c0 17.82 3.059 35.358 9.092 52.128 1.071 2.977 3.895 4.961 7.058 4.961 8.432 0 15.291 6.859 15.291 15.291v20.054c0 5.324-2.832 10.34-7.391 13.091l-14.814 8.94-.968-1.846c-1.924-3.669-6.458-5.081-10.126-3.158-3.668 1.924-5.081 6.458-3.157 10.125l8.438 16.085c6.867 13.09 5.745 28.02-3.002 39.937-8.746 11.917-22.648 17.464-37.195 14.836l-7.236-1.307c-4.082-.734-7.978 1.972-8.714 6.048s1.972 7.978 6.048 8.714l3.783.683-1.558 1.141c-8.252 6.044-18.021 9.24-28.25 9.24h-19.43c-10.229 0-19.998-3.195-28.25-9.24l-1.36-.996 4.585-.828c4.076-.736 6.784-4.638 6.048-8.714s-4.632-6.783-8.714-6.048l-7.231 1.307c-14.548 2.624-28.456-2.918-37.203-14.835zm45.672 125.716c-2.433 2.521-6.315 2.758-9.033.552l-44.703-36.269c-2.193-1.78-3.48-4.313-3.623-7.135-.144-2.821.881-5.472 2.883-7.464l8.34-8.298c1.895-1.885 4.4-2.864 6.933-2.864 1.733 0 3.479.459 5.049 1.399l58.373 34.957zm126.066-35.716-44.703 36.269c-2.72 2.207-6.604 1.968-9.033-.552l-24.218-25.122 58.373-34.957c3.86-2.314 8.788-1.71 11.981 1.465l8.34 8.298c2.002 1.992 3.026 4.643 2.883 7.464-.142 2.821-1.429 5.355-3.623 7.135z"/><path d="m243.17 209.401c-3.627 2-4.946 6.562-2.947 10.189l.275.499c3.176 5.761 8.997 9.321 15.572 9.523.196.006.393.009.588.009 6.345 0 12.121-3.168 15.537-8.554l.685-1.078c2.221-3.497 1.186-8.131-2.311-10.352-3.498-2.221-8.134-1.186-10.352 2.312l-.687 1.081c-.911 1.436-2.278 1.614-3 1.59-.729-.022-2.076-.282-2.896-1.772l-.275-.5c-1.999-3.628-6.56-4.946-10.189-2.947z"/><path d="m255.603 267.077c-13.071 0-25.101 5.971-33.002 16.383-2.505 3.299-1.86 8.004 1.439 10.508s8.005 1.859 10.508-1.44c5.042-6.642 12.716-10.451 21.055-10.451s16.013 3.809 21.055 10.451c1.475 1.944 3.714 2.966 5.979 2.966 1.58 0 3.173-.498 4.528-1.526 3.3-2.504 3.944-7.209 1.439-10.508-7.9-10.412-19.93-16.383-33.001-16.383z"/><path d="m237.395 191.723 2.543.499c4.065.797 8.006-1.852 8.804-5.917.797-4.065-1.853-8.006-5.918-8.803l-2.542-.499c-20.167-3.952-40.836-1.83-59.779 6.146l-2.146.904c-3.816 1.608-5.607 6.006-4 9.823 1.208 2.867 3.988 4.59 6.915 4.59.971 0 1.958-.19 2.908-.59l2.145-.903c16.18-6.813 33.843-8.629 51.07-5.25z"/><path d="m272.268 192.222 2.543-.499c17.229-3.378 34.889-1.563 51.068 5.25l2.146.904c.95.401 1.938.59 2.908.59 2.927 0 5.707-1.724 6.915-4.59 1.607-3.817-.184-8.215-4-9.823l-2.147-.904c-18.939-7.976-39.613-10.1-59.776-6.146l-2.543.499c-4.065.797-6.715 4.738-5.918 8.803.798 4.063 4.731 6.718 8.804 5.916z"/><path d="m375.958 270.793c1.219 2.844 3.987 4.547 6.897 4.547.985 0 1.987-.196 2.951-.608l11.55-4.951c3.807-1.632 5.57-6.041 3.938-9.848-1.631-3.807-6.037-5.571-9.849-3.939l-11.55 4.951c-3.806 1.632-5.569 6.041-3.937 9.848z"/><path d="m397.356 303.023-11.55-4.951c-3.811-1.633-8.217.133-9.849 3.939-1.632 3.807.132 8.216 3.938 9.848l11.55 4.951c.964.413 1.966.608 2.951.608 2.91 0 5.679-1.704 6.897-4.547 1.633-3.807-.13-8.216-3.937-9.848z"/><path d="m114.85 269.782 11.55 4.951c.964.413 1.966.608 2.951.608 2.91 0 5.679-1.704 6.897-4.547 1.632-3.807-.132-8.216-3.938-9.848l-11.55-4.951c-3.81-1.634-8.218.132-9.849 3.939s.132 8.216 3.939 9.848z"/><path d="m117.809 317.418c.985 0 1.987-.196 2.951-.608l11.55-4.951c3.807-1.632 5.57-6.041 3.938-9.848-1.631-3.806-6.038-5.57-9.849-3.939l-11.55 4.951c-3.807 1.632-5.57 6.041-3.938 9.848 1.219 2.844 3.988 4.547 6.898 4.547z"/></g></g></svg>