<svg height="512" viewBox="0 0 64 64" width="512" xmlns="http://www.w3.org/2000/svg"><g id="flat"><path d="m3 49h58v8h-58z" fill="#d3843d"/><path d="m13 19h38a5 5 0 0 1 5 5v21a0 0 0 0 1 0 0h-48a0 0 0 0 1 0 0v-21a5 5 0 0 1 5-5z" fill="#d3843d"/><path d="m3 28h5v21h-5z" fill="#f9bb4b"/><path d="m8 45h48v4h-48z" fill="#ad6327"/><path d="m38 23h-12v-10l6-2 6 2z" fill="#ffd782"/><path d="m29 16h2v2h-2z" fill="#394d5c"/><path d="m33 16h2v2h-2z" fill="#394d5c"/><path d="m22 27h20v12h-20z" fill="#143441"/><path d="m32 53h-6l4-4h2a2 2 0 0 1 2 2 2 2 0 0 1 -2 2z" fill="#ffd782"/><path d="m38 13-6-2-6 2v-2c0-2.5.5-4 3-4h6c2.5 0 3 1.5 3 4z" fill="#394d5c"/><path d="m26 23h12a3 3 0 0 1 3 3v1a0 0 0 0 1 0 0h-18a0 0 0 0 1 0 0v-1a3 3 0 0 1 3-3z" fill="#b11e48"/><path d="m32 3a3 3 0 0 1 3 3v1a0 0 0 0 1 0 0h-6a0 0 0 0 1 0 0v-1a3 3 0 0 1 3-3z" fill="#143441"/><path d="m56 29h5v20h-5z" fill="#f9bb4b"/><path d="m5 57h4a0 0 0 0 1 0 0v2a2 2 0 0 1 -2 2 2 2 0 0 1 -2-2v-2a0 0 0 0 1 0 0z" fill="#394d5c"/><path d="m55 57h4a0 0 0 0 1 0 0v2a2 2 0 0 1 -2 2 2 2 0 0 1 -2-2v-2a0 0 0 0 1 0 0z" fill="#394d5c"/><circle cx="32" cy="33" fill="#f4f4e6" r="2"/><path d="m22 39h9v6h-9z" fill="#388ab2"/><path d="m28 41h2v4h-4a2.5 2.5 0 0 1 2-4z" fill="#ffd782"/><g fill="#195c85"><path d="m30 39h13a3 3 0 0 1 3 3 3 3 0 0 1 -3 3h-13a0 0 0 0 1 0 0v-6a0 0 0 0 1 0 0z"/><path d="m22 39 8 10-4 4-8-10a2.828 2.828 0 0 1 0-4 2.828 2.828 0 0 1 4 0z"/></g></g></svg>